<?xml version="1.0" encoding="UTF-8"?> <!-- Generator: Adobe Illustrator 24.1.2, SVG Export Plug-In . SVG Version: 6.00 Build 0) --> <svg xmlns="http://www.w3.org/2000/svg" xmlns:xlink="http://www.w3.org/1999/xlink" version="1.1" id="Layer_1" x="0px" y="0px" viewBox="0 0 1309 395" style="enable-background:new 0 0 1309 395;" xml:space="preserve"> <style type="text/css"> .st0{fill:#222222;} </style> <path class="st0" d="M247.1,197.7c0-66.3-52.4-120.7-118.6-123.3V0h-9.9v395h9.9v-74.4C194.7,318.3,247,263.9,247.1,197.7z M128.5,271.5V123.8c40.8,2.4,71.9,37.5,69.5,78.3C195.7,239.5,165.9,269.3,128.5,271.5z"></path> <path class="st0" d="M790.6,74.1c-26.8,0-52.8,8.7-74.1,24.9V74.1h-49.4v321.2h49.4v-99c54.5,41,131.9,30,172.9-24.5 s30-131.9-24.5-172.9C843.4,82.8,817.4,74.1,790.6,74.1L790.6,74.1z M790.6,271.8c-40.9,0-74.1-33.2-74.1-74.1s33.2-74.1,74.1-74.1 s74.1,33.2,74.1,74.1l0,0C864.7,238.6,831.5,271.8,790.6,271.8z"></path> <path class="st0" d="M1111.8,74.1V210c0,34.1-27.7,61.8-61.8,61.8c-34.1,0-61.8-27.7-61.8-61.8V74.1h-49.4V210 c0,61.4,49.7,111.2,111.1,111.2c22,0,43.5-6.5,61.8-18.7v18.8h49.4V74.1H1111.8z"></path> <path class="st0" d="M444.7,74.1V210c0,34.1-27.7,61.8-61.8,61.8s-61.8-27.7-61.8-61.8V74.1h-49.4V210 c0,61.4,49.7,111.2,111.1,111.2c22,0,43.5-6.5,61.8-18.7v18.8H494V74.1H444.7z"></path> <polygon class="st0" points="1309,74.1 1272.3,74.1 1272.3,0 1222.9,0 1222.9,74.1 1185.9,74.1 1185.9,123.5 1222.9,123.5 1222.9,321.2 1272.3,321.2 1272.3,123.5 1309,123.5 "></polygon> <polygon class="st0" points="642.3,74.1 605.3,74.1 605.3,0 555.9,0 555.9,74.1 518.8,74.1 518.8,123.5 555.9,123.5 555.9,321.2 605.3,321.2 605.3,123.5 642.3,123.5 "></polygon> <path class="st0" d="M89,79.1v237c3.2,1,6.5,1.8,9.9,2.5v-242C95.5,77.3,92.2,78.2,89,79.1z"></path> <path class="st0" d="M59.3,92.3V303c3.2,2,6.5,3.8,9.9,5.4V86.9C65.8,88.5,62.5,90.3,59.3,92.3z"></path> <path class="st0" d="M29.7,117.5v160.3c3.1,3.6,6.4,7,9.9,10.2V107.3C36,110.5,32.7,113.9,29.7,117.5z"></path> <path class="st0" d="M0,197.7c0,16.7,3.3,33.1,9.9,48.5v-96.9C3.3,164.5,0,181,0,197.7z"></path> </svg> 