<?xml version="1.0" encoding="UTF-8"?> <svg xmlns="http://www.w3.org/2000/svg" xmlns:xlink="http://www.w3.org/1999/xlink" version="1.1" id="Layer_1" x="0px" y="0px" viewBox="0 0 19 29" style="enable-background:new 0 0 19 29;" xml:space="preserve"> <style type="text/css"> .st0{fill:#222222;} .st1{fill-rule:evenodd;clip-rule:evenodd;fill:#222222;} </style> <rect x="8.7" class="st0" width="1.3" height="29"></rect> <path class="st0" d="M10,5.3c2.5,0,4.8,1,6.6,2.7c1.8,1.8,2.7,4.1,2.7,6.6c0,2.5-1,4.8-2.7,6.6C14.8,23,12.5,24,10,24v-3.7 c1.5,0,2.9-0.6,4-1.6s1.6-2.5,1.6-4s-0.6-2.9-1.6-4c-1.1-1.1-2.5-1.6-4-1.6V5.3z"></path> <path class="st1" d="M6.7,5.7C6,5.9,5.3,6.2,4.7,6.6v16.2c0.6,0.4,1.3,0.7,2,0.9V5.7z M0,14.7c0-2.1,0.7-4.1,2-5.8v11.5 C0.7,18.8,0,16.8,0,14.7z"></path> </svg> 